<svg xmlns="http://www.w3.org/2000/svg" version="1.1" xmlns:xlink="http://www.w3.org/1999/xlink" xmlns:svgjs="http://svgjs.dev/svgjs" width="1440" height="560" preserveAspectRatio="none" viewBox="0 0 1440 560"><g mask="url(&quot;#SvgjsMask1809&quot;)" fill="none"><g transform="translate(43.2, 5.6)"><use xlink:href="#SvgjsPath1810" x="210" y="280" fill="rgba(114, 123, 221, 1)"></use><use xlink:href="#SvgjsPath1811" x="225" y="280" fill="rgba(199, 200, 217, 1)"></use><use xlink:href="#SvgjsPath1812" x="240" y="280" fill="rgba(199, 200, 217, 1)"></use><use xlink:href="#SvgjsPath1813" x="255" y="280" fill="rgba(199, 200, 217, 1)"></use><use xlink:href="#SvgjsPath1814" x="270" y="280" fill="rgba(114, 123, 221, 1)"></use><use xlink:href="#SvgjsPath1814" x="285" y="280" fill="rgba(114, 123, 221, 1)"></use><use xlink:href="#SvgjsPath1815" x="300" y="280" fill="rgba(114, 123, 221, 1)"></use><use xlink:href="#SvgjsPath1813" x="315" y="280" fill="rgba(114, 123, 221, 1)"></use><use xlink:href="#SvgjsPath1814" x="330" y="280" fill="rgba(199, 200, 217, 1)"></use><use xlink:href="#SvgjsPath1816" x="345" y="280" fill="rgba(199, 200, 217, 1)"></use><use xlink:href="#SvgjsPath1816" x="360" y="280" fill="rgba(199, 200, 217, 1)"></use><use xlink:href="#SvgjsPath1817" x="375" y="280" fill="rgba(114, 123, 221, 1)"></use><use xlink:href="#SvgjsPath1818" x="390" y="280" fill="rgba(199, 200, 217, 1)"></use><use xlink:href="#SvgjsPath1819" x="405" y="280" fill="rgba(114, 123, 221, 1)"></use><use xlink:href="#SvgjsPath1817" x="420" y="280" fill="rgba(114, 123, 221, 1)"></use><use xlink:href="#SvgjsPath1813" x="435" y="280" fill="rgba(114, 123, 221, 1)"></use><use xlink:href="#SvgjsPath1819" x="450" y="280" fill="rgba(114, 123, 221, 1)"></use><use xlink:href="#SvgjsPath1813" x="465" y="280" fill="rgba(199, 200, 217, 1)"></use><use xlink:href="#SvgjsPath1814" x="480" y="280" fill="rgba(199, 200, 217, 1)"></use><use xlink:href="#SvgjsPath1815" x="495" y="280" fill="rgba(199, 200, 217, 1)"></use><use xlink:href="#SvgjsPath1814" x="510" y="280" fill="rgba(199, 200, 217, 1)"></use><use xlink:href="#SvgjsPath1812" x="525" y="280" fill="rgba(114, 123, 221, 1)"></use><use xlink:href="#SvgjsPath1817" x="540" y="280" fill="rgba(199, 200, 217, 1)"></use><use xlink:href="#SvgjsPath1820" x="555" y="280" fill="rgba(114, 123, 221, 1)"></use><use xlink:href="#SvgjsPath1817" x="570" y="280" fill="rgba(199, 200, 217, 1)"></use><use xlink:href="#SvgjsPath1813" x="585" y="280" fill="rgba(199, 200, 217, 1)"></use><use xlink:href="#SvgjsPath1818" x="600" y="280" fill="rgba(114, 123, 221, 1)"></use><use xlink:href="#SvgjsPath1817" x="615" y="280" fill="rgba(199, 200, 217, 1)"></use><use xlink:href="#SvgjsPath1817" x="630" y="280" fill="rgba(199, 200, 217, 1)"></use><use xlink:href="#SvgjsPath1813" x="645" y="280" fill="rgba(199, 200, 217, 1)"></use><use xlink:href="#SvgjsPath1817" x="660" y="280" fill="rgba(114, 123, 221, 1)"></use><use xlink:href="#SvgjsPath1819" x="675" y="280" fill="rgba(114, 123, 221, 1)"></use><use xlink:href="#SvgjsPath1816" x="690" y="280" fill="rgba(114, 123, 221, 1)"></use><use xlink:href="#SvgjsPath1812" x="705" y="280" fill="rgba(114, 123, 221, 1)"></use><use xlink:href="#SvgjsPath1810" x="720" y="280" fill="rgba(114, 123, 221, 1)"></use><use xlink:href="#SvgjsPath1819" x="735" y="280" fill="rgba(114, 123, 221, 1)"></use><use xlink:href="#SvgjsPath1816" x="750" y="280" fill="rgba(199, 200, 217, 1)"></use><use xlink:href="#SvgjsPath1818" x="765" y="280" fill="rgba(199, 200, 217, 1)"></use><use xlink:href="#SvgjsPath1813" x="780" y="280" fill="rgba(199, 200, 217, 1)"></use><use xlink:href="#SvgjsPath1812" x="795" y="280" fill="rgba(114, 123, 221, 1)"></use><use xlink:href="#SvgjsPath1816" x="810" y="280" fill="rgba(199, 200, 217, 1)"></use><use xlink:href="#SvgjsPath1812" x="825" y="280" fill="rgba(199, 200, 217, 1)"></use><use xlink:href="#SvgjsPath1813" x="840" y="280" fill="rgba(199, 200, 217, 1)"></use><use xlink:href="#SvgjsPath1817" x="855" y="280" fill="rgba(114, 123, 221, 1)"></use><use xlink:href="#SvgjsPath1814" x="870" y="280" fill="rgba(114, 123, 221, 1)"></use><use xlink:href="#SvgjsPath1820" x="885" y="280" fill="rgba(114, 123, 221, 1)"></use><use xlink:href="#SvgjsPath1812" x="900" y="280" fill="rgba(199, 200, 217, 1)"></use><use xlink:href="#SvgjsPath1810" x="915" y="280" fill="rgba(114, 123, 221, 1)"></use><use xlink:href="#SvgjsPath1810" x="930" y="280" fill="rgba(199, 200, 217, 1)"></use><use xlink:href="#SvgjsPath1819" x="945" y="280" fill="rgba(199, 200, 217, 1)"></use><use xlink:href="#SvgjsPath1813" x="960" y="280" fill="rgba(114, 123, 221, 1)"></use><use xlink:href="#SvgjsPath1817" x="975" y="280" fill="rgba(114, 123, 221, 1)"></use><use xlink:href="#SvgjsPath1812" x="990" y="280" fill="rgba(199, 200, 217, 1)"></use><use xlink:href="#SvgjsPath1811" x="1005" y="280" fill="rgba(114, 123, 221, 1)"></use><use xlink:href="#SvgjsPath1813" x="1020" y="280" fill="rgba(199, 200, 217, 1)"></use><use xlink:href="#SvgjsPath1818" x="1035" y="280" fill="rgba(114, 123, 221, 1)"></use><use xlink:href="#SvgjsPath1814" x="1050" y="280" fill="rgba(199, 200, 217, 1)"></use><use xlink:href="#SvgjsPath1819" x="1065" y="280" fill="rgba(199, 200, 217, 1)"></use><use xlink:href="#SvgjsPath1820" x="1080" y="280" fill="rgba(199, 200, 217, 1)"></use><use xlink:href="#SvgjsPath1816" x="1095" y="280" fill="rgba(199, 200, 217, 1)"></use><use xlink:href="#SvgjsPath1812" x="1110" y="280" fill="rgba(199, 200, 217, 1)"></use><use xlink:href="#SvgjsPath1814" x="1125" y="280" fill="rgba(199, 200, 217, 1)"></use><use xlink:href="#SvgjsPath1815" x="1140" y="280" fill="rgba(114, 123, 221, 1)"></use><use xlink:href="#SvgjsPath1816" x="1155" y="280" fill="rgba(114, 123, 221, 1)"></use><use xlink:href="#SvgjsPath1814" x="1170" y="280" fill="rgba(199, 200, 217, 1)"></use><use xlink:href="#SvgjsPath1818" x="1185" y="280" fill="rgba(199, 200, 217, 1)"></use><use xlink:href="#SvgjsPath1812" x="1200" y="280" fill="rgba(114, 123, 221, 1)"></use><use xlink:href="#SvgjsPath1815" x="1215" y="280" fill="rgba(114, 123, 221, 1)"></use><use xlink:href="#SvgjsPath1816" x="1230" y="280" fill="rgba(114, 123, 221, 1)"></use></g></g><defs><mask id="SvgjsMask1809"><rect width="1440" height="560" fill="#ffffff"></rect></mask><path d="M-6 0 a6 6 0 1 0 12 0 a6 6 0 1 0 -12 0zM-6 15 a6 6 0 1 0 12 0 a6 6 0 1 0 -12 0zM-6 -15 a6 6 0 1 0 12 0 a6 6 0 1 0 -12 0z" id="SvgjsPath1820"></path><path d="M-6 0 a6 6 0 1 0 12 0 a6 6 0 1 0 -12 0zM-6 15 a6 6 0 1 0 12 0 a6 6 0 1 0 -12 0zM-6 -15 a6 6 0 1 0 12 0 a6 6 0 1 0 -12 0zM-6 30 a6 6 0 1 0 12 0 a6 6 0 1 0 -12 0zM-6 -30 a6 6 0 1 0 12 0 a6 6 0 1 0 -12 0z" id="SvgjsPath1813"></path><path d="M-6 0 a6 6 0 1 0 12 0 a6 6 0 1 0 -12 0zM-6 15 a6 6 0 1 0 12 0 a6 6 0 1 0 -12 0zM-6 -15 a6 6 0 1 0 12 0 a6 6 0 1 0 -12 0zM-6 30 a6 6 0 1 0 12 0 a6 6 0 1 0 -12 0zM-6 -30 a6 6 0 1 0 12 0 a6 6 0 1 0 -12 0zM-6 45 a6 6 0 1 0 12 0 a6 6 0 1 0 -12 0zM-6 -45 a6 6 0 1 0 12 0 a6 6 0 1 0 -12 0z" id="SvgjsPath1815"></path><path d="M-6 0 a6 6 0 1 0 12 0 a6 6 0 1 0 -12 0zM-6 15 a6 6 0 1 0 12 0 a6 6 0 1 0 -12 0zM-6 -15 a6 6 0 1 0 12 0 a6 6 0 1 0 -12 0zM-6 30 a6 6 0 1 0 12 0 a6 6 0 1 0 -12 0zM-6 -30 a6 6 0 1 0 12 0 a6 6 0 1 0 -12 0zM-6 45 a6 6 0 1 0 12 0 a6 6 0 1 0 -12 0zM-6 -45 a6 6 0 1 0 12 0 a6 6 0 1 0 -12 0zM-6 60 a6 6 0 1 0 12 0 a6 6 0 1 0 -12 0zM-6 -60 a6 6 0 1 0 12 0 a6 6 0 1 0 -12 0z" id="SvgjsPath1819"></path><path d="M-6 0 a6 6 0 1 0 12 0 a6 6 0 1 0 -12 0zM-6 15 a6 6 0 1 0 12 0 a6 6 0 1 0 -12 0zM-6 -15 a6 6 0 1 0 12 0 a6 6 0 1 0 -12 0zM-6 30 a6 6 0 1 0 12 0 a6 6 0 1 0 -12 0zM-6 -30 a6 6 0 1 0 12 0 a6 6 0 1 0 -12 0zM-6 45 a6 6 0 1 0 12 0 a6 6 0 1 0 -12 0zM-6 -45 a6 6 0 1 0 12 0 a6 6 0 1 0 -12 0zM-6 60 a6 6 0 1 0 12 0 a6 6 0 1 0 -12 0zM-6 -60 a6 6 0 1 0 12 0 a6 6 0 1 0 -12 0zM-6 75 a6 6 0 1 0 12 0 a6 6 0 1 0 -12 0zM-6 -75 a6 6 0 1 0 12 0 a6 6 0 1 0 -12 0z" id="SvgjsPath1814"></path><path d="M-6 0 a6 6 0 1 0 12 0 a6 6 0 1 0 -12 0zM-6 15 a6 6 0 1 0 12 0 a6 6 0 1 0 -12 0zM-6 -15 a6 6 0 1 0 12 0 a6 6 0 1 0 -12 0zM-6 30 a6 6 0 1 0 12 0 a6 6 0 1 0 -12 0zM-6 -30 a6 6 0 1 0 12 0 a6 6 0 1 0 -12 0zM-6 45 a6 6 0 1 0 12 0 a6 6 0 1 0 -12 0zM-6 -45 a6 6 0 1 0 12 0 a6 6 0 1 0 -12 0zM-6 60 a6 6 0 1 0 12 0 a6 6 0 1 0 -12 0zM-6 -60 a6 6 0 1 0 12 0 a6 6 0 1 0 -12 0zM-6 75 a6 6 0 1 0 12 0 a6 6 0 1 0 -12 0zM-6 -75 a6 6 0 1 0 12 0 a6 6 0 1 0 -12 0zM-6 90 a6 6 0 1 0 12 0 a6 6 0 1 0 -12 0zM-6 -90 a6 6 0 1 0 12 0 a6 6 0 1 0 -12 0z" id="SvgjsPath1816"></path><path d="M-6 0 a6 6 0 1 0 12 0 a6 6 0 1 0 -12 0zM-6 15 a6 6 0 1 0 12 0 a6 6 0 1 0 -12 0zM-6 -15 a6 6 0 1 0 12 0 a6 6 0 1 0 -12 0zM-6 30 a6 6 0 1 0 12 0 a6 6 0 1 0 -12 0zM-6 -30 a6 6 0 1 0 12 0 a6 6 0 1 0 -12 0zM-6 45 a6 6 0 1 0 12 0 a6 6 0 1 0 -12 0zM-6 -45 a6 6 0 1 0 12 0 a6 6 0 1 0 -12 0zM-6 60 a6 6 0 1 0 12 0 a6 6 0 1 0 -12 0zM-6 -60 a6 6 0 1 0 12 0 a6 6 0 1 0 -12 0zM-6 75 a6 6 0 1 0 12 0 a6 6 0 1 0 -12 0zM-6 -75 a6 6 0 1 0 12 0 a6 6 0 1 0 -12 0zM-6 90 a6 6 0 1 0 12 0 a6 6 0 1 0 -12 0zM-6 -90 a6 6 0 1 0 12 0 a6 6 0 1 0 -12 0zM-6 105 a6 6 0 1 0 12 0 a6 6 0 1 0 -12 0zM-6 -105 a6 6 0 1 0 12 0 a6 6 0 1 0 -12 0z" id="SvgjsPath1818"></path><path d="M-6 0 a6 6 0 1 0 12 0 a6 6 0 1 0 -12 0zM-6 15 a6 6 0 1 0 12 0 a6 6 0 1 0 -12 0zM-6 -15 a6 6 0 1 0 12 0 a6 6 0 1 0 -12 0zM-6 30 a6 6 0 1 0 12 0 a6 6 0 1 0 -12 0zM-6 -30 a6 6 0 1 0 12 0 a6 6 0 1 0 -12 0zM-6 45 a6 6 0 1 0 12 0 a6 6 0 1 0 -12 0zM-6 -45 a6 6 0 1 0 12 0 a6 6 0 1 0 -12 0zM-6 60 a6 6 0 1 0 12 0 a6 6 0 1 0 -12 0zM-6 -60 a6 6 0 1 0 12 0 a6 6 0 1 0 -12 0zM-6 75 a6 6 0 1 0 12 0 a6 6 0 1 0 -12 0zM-6 -75 a6 6 0 1 0 12 0 a6 6 0 1 0 -12 0zM-6 90 a6 6 0 1 0 12 0 a6 6 0 1 0 -12 0zM-6 -90 a6 6 0 1 0 12 0 a6 6 0 1 0 -12 0zM-6 105 a6 6 0 1 0 12 0 a6 6 0 1 0 -12 0zM-6 -105 a6 6 0 1 0 12 0 a6 6 0 1 0 -12 0zM-6 120 a6 6 0 1 0 12 0 a6 6 0 1 0 -12 0zM-6 -120 a6 6 0 1 0 12 0 a6 6 0 1 0 -12 0z" id="SvgjsPath1811"></path><path d="M-6 0 a6 6 0 1 0 12 0 a6 6 0 1 0 -12 0zM-6 15 a6 6 0 1 0 12 0 a6 6 0 1 0 -12 0zM-6 -15 a6 6 0 1 0 12 0 a6 6 0 1 0 -12 0zM-6 30 a6 6 0 1 0 12 0 a6 6 0 1 0 -12 0zM-6 -30 a6 6 0 1 0 12 0 a6 6 0 1 0 -12 0zM-6 45 a6 6 0 1 0 12 0 a6 6 0 1 0 -12 0zM-6 -45 a6 6 0 1 0 12 0 a6 6 0 1 0 -12 0zM-6 60 a6 6 0 1 0 12 0 a6 6 0 1 0 -12 0zM-6 -60 a6 6 0 1 0 12 0 a6 6 0 1 0 -12 0zM-6 75 a6 6 0 1 0 12 0 a6 6 0 1 0 -12 0zM-6 -75 a6 6 0 1 0 12 0 a6 6 0 1 0 -12 0zM-6 90 a6 6 0 1 0 12 0 a6 6 0 1 0 -12 0zM-6 -90 a6 6 0 1 0 12 0 a6 6 0 1 0 -12 0zM-6 105 a6 6 0 1 0 12 0 a6 6 0 1 0 -12 0zM-6 -105 a6 6 0 1 0 12 0 a6 6 0 1 0 -12 0zM-6 120 a6 6 0 1 0 12 0 a6 6 0 1 0 -12 0zM-6 -120 a6 6 0 1 0 12 0 a6 6 0 1 0 -12 0zM-6 135 a6 6 0 1 0 12 0 a6 6 0 1 0 -12 0zM-6 -135 a6 6 0 1 0 12 0 a6 6 0 1 0 -12 0z" id="SvgjsPath1817"></path><path d="M-6 0 a6 6 0 1 0 12 0 a6 6 0 1 0 -12 0zM-6 15 a6 6 0 1 0 12 0 a6 6 0 1 0 -12 0zM-6 -15 a6 6 0 1 0 12 0 a6 6 0 1 0 -12 0zM-6 30 a6 6 0 1 0 12 0 a6 6 0 1 0 -12 0zM-6 -30 a6 6 0 1 0 12 0 a6 6 0 1 0 -12 0zM-6 45 a6 6 0 1 0 12 0 a6 6 0 1 0 -12 0zM-6 -45 a6 6 0 1 0 12 0 a6 6 0 1 0 -12 0zM-6 60 a6 6 0 1 0 12 0 a6 6 0 1 0 -12 0zM-6 -60 a6 6 0 1 0 12 0 a6 6 0 1 0 -12 0zM-6 75 a6 6 0 1 0 12 0 a6 6 0 1 0 -12 0zM-6 -75 a6 6 0 1 0 12 0 a6 6 0 1 0 -12 0zM-6 90 a6 6 0 1 0 12 0 a6 6 0 1 0 -12 0zM-6 -90 a6 6 0 1 0 12 0 a6 6 0 1 0 -12 0zM-6 105 a6 6 0 1 0 12 0 a6 6 0 1 0 -12 0zM-6 -105 a6 6 0 1 0 12 0 a6 6 0 1 0 -12 0zM-6 120 a6 6 0 1 0 12 0 a6 6 0 1 0 -12 0zM-6 -120 a6 6 0 1 0 12 0 a6 6 0 1 0 -12 0zM-6 135 a6 6 0 1 0 12 0 a6 6 0 1 0 -12 0zM-6 -135 a6 6 0 1 0 12 0 a6 6 0 1 0 -12 0zM-6 150 a6 6 0 1 0 12 0 a6 6 0 1 0 -12 0zM-6 -150 a6 6 0 1 0 12 0 a6 6 0 1 0 -12 0z" id="SvgjsPath1810"></path><path d="M-6 0 a6 6 0 1 0 12 0 a6 6 0 1 0 -12 0zM-6 15 a6 6 0 1 0 12 0 a6 6 0 1 0 -12 0zM-6 -15 a6 6 0 1 0 12 0 a6 6 0 1 0 -12 0zM-6 30 a6 6 0 1 0 12 0 a6 6 0 1 0 -12 0zM-6 -30 a6 6 0 1 0 12 0 a6 6 0 1 0 -12 0zM-6 45 a6 6 0 1 0 12 0 a6 6 0 1 0 -12 0zM-6 -45 a6 6 0 1 0 12 0 a6 6 0 1 0 -12 0zM-6 60 a6 6 0 1 0 12 0 a6 6 0 1 0 -12 0zM-6 -60 a6 6 0 1 0 12 0 a6 6 0 1 0 -12 0zM-6 75 a6 6 0 1 0 12 0 a6 6 0 1 0 -12 0zM-6 -75 a6 6 0 1 0 12 0 a6 6 0 1 0 -12 0zM-6 90 a6 6 0 1 0 12 0 a6 6 0 1 0 -12 0zM-6 -90 a6 6 0 1 0 12 0 a6 6 0 1 0 -12 0zM-6 105 a6 6 0 1 0 12 0 a6 6 0 1 0 -12 0zM-6 -105 a6 6 0 1 0 12 0 a6 6 0 1 0 -12 0zM-6 120 a6 6 0 1 0 12 0 a6 6 0 1 0 -12 0zM-6 -120 a6 6 0 1 0 12 0 a6 6 0 1 0 -12 0zM-6 135 a6 6 0 1 0 12 0 a6 6 0 1 0 -12 0zM-6 -135 a6 6 0 1 0 12 0 a6 6 0 1 0 -12 0zM-6 150 a6 6 0 1 0 12 0 a6 6 0 1 0 -12 0zM-6 -150 a6 6 0 1 0 12 0 a6 6 0 1 0 -12 0zM-6 165 a6 6 0 1 0 12 0 a6 6 0 1 0 -12 0zM-6 -165 a6 6 0 1 0 12 0 a6 6 0 1 0 -12 0zM-6 180 a6 6 0 1 0 12 0 a6 6 0 1 0 -12 0zM-6 -180 a6 6 0 1 0 12 0 a6 6 0 1 0 -12 0z" id="SvgjsPath1812"></path></defs></svg>